<svg xmlns="http://www.w3.org/2000/svg"
shape-rendering="geometricPrecision"
width="4000" height="4000" viewBox="320 300 380 420">
  <metadata>null</metadata>

<path d="
M 334.488 371.109
C 336.039 361.031 338.151 351.846 344.435 343.493
C 362.62 319.321 399.034 315.086 421.888 335.088
C 430.886 342.964 436.76 353.957 438.82 365.692
C 439.364 368.794 439.417 371.945 439.472 375.087
C 439.495 376.412 439.049 378.23 439.513 379.45
C 448.908 384.664 457.649 391.496 466.644 397.38
C 485.908 409.981 505.062 422.789 524.12 435.699
C 539.705 446.257 555.501 456.498 571.118 467.005
C 578.107 471.708 585.661 475.968 592.185 481.303
C 592.624 481.279 593.712 478.985 593.982 478.57
C 595.77 475.819 598.09 473.352 600.454 471.09
C 607.538 464.31 615.623 460.83 624.8 457.857
C 624.976 450.756 624.763 443.615 624.756 436.508
C 624.753 433.574 625.544 429.414 624.711 426.626
C 620.326 425.898 615.844 423.936 611.93 421.897
C 589.478 410.203 579.401 382.402 587.034 358.564
C 593.732 337.646 613.649 323.17 635.453 322.403
C 643.193 322.131 651.122 323.427 658.268 326.469
C 685.416 338.025 697.099 370.828 685.301 397.428
C 683.113 402.361 680.299 406.883 676.594 410.817
C 673.224 414.393 669.684 417.694 665.444 420.236
C 660.653 423.109 655.283 425.589 649.791 426.75
C 649.766 433.667 649.75 440.584 649.754 447.502
C 649.756 450.86 649.257 454.745 649.95 458.034
C 653.937 458.22 658.603 460.651 662.083 462.455
C 674.966 469.134 683.993 480.44 687.863 494.373
C 695.657 522.427 679.019 554.017 649.751 560.34
C 649.178 563.335 649.656 566.932 649.652 569.997
C 649.643 577.211 649.893 584.465 649.701 591.673
C 650.649 592.263 652.212 592.263 653.307 592.598
C 655.81 593.364 658.205 594.414 660.565 595.537
C 669.056 599.577 676.486 605.914 681.61 613.816
C 686.38 621.173 689.192 629.659 689.903 638.39
C 690.549 646.314 689.495 654.302 686.772 661.782
C 684.585 667.791 681.257 673.229 677.111 678.081
C 659.692 698.466 628.207 701.4 606.59 686.023
C 597.19 679.336 590.464 669.348 587.082 658.394
C 585.226 652.384 584.175 645.419 584.768 639.122
C 581.604 636.223 577.271 634.051 573.712 631.63
C 564.958 625.673 556.043 619.951 547.273 614.018
C 524.677 598.73 502.112 583.211 479.111 568.551
C 467.837 561.366 456.887 553.591 445.782 546.143
C 442.777 544.128 439.732 542.172 436.743 540.132
C 435.203 539.081 433.319 537.372 431.572 536.792
C 426.136 545.772 418.016 552.835 408.477 557.168
C 405.68 558.438 402.772 559.853 399.701 560.284
C 399.188 570.724 400.115 581.245 399.702 591.691
C 400.676 592.147 401.889 592.152 402.925 592.487
C 405.854 593.432 408.716 594.597 411.439 596.035
C 423.575 602.443 432.478 612.754 436.992 625.716
C 445.055 648.871 434.903 676.43 413.758 688.77
C 403.409 694.81 391.017 696.944 379.204 695.291
C 367.501 693.653 356.432 687.967 348.394 679.275
C 334.137 663.856 330.333 639.684 338.982 620.571
C 343.1 611.472 350.214 603.181 358.859 598.106
C 364.035 595.068 369.348 593.141 375.054 591.403
C 375.411 591.176 375.205 589.848 375.201 589.451
C 375.185 587.637 375.217 585.822 375.224 584.008
C 375.257 576.21 375.04 568.377 375.214 560.587
C 371.524 560.088 367.838 558.463 364.46 556.966
C 337.762 545.131 327.132 511.374 339.578 485.473
C 344.359 475.523 352.896 466.801 362.915 462.109
C 366.936 460.226 371.063 459.181 375.201 457.707
C 375.375 449.982 375.271 442.238 375.263 434.509
C 375.261 432.678 375.211 430.841 375.261 429.01
C 375.276 428.469 375.466 427.294 375.084 426.904
C 349.488 421.767 332.195 396.777 334.488 371.109 Z
M 358.985 372.615
C 358.638 376.642 359.163 380.762 360.408 384.607
C 361.553 388.144 363.367 391.473 365.86 394.238
C 368.299 396.943 371.266 399.29 374.548 400.884
C 385.845 406.37 400.105 403.52 408.384 394.02
C 412.349 389.469 414.716 383.402 415.253 377.42
C 415.598 373.574 415.044 369.58 413.832 365.925
C 412.62 362.271 410.667 358.762 408.101 355.883
C 405.992 353.515 403.386 351.48 400.568 350.016
C 382.819 340.802 360.721 352.499 358.985 372.615 Z
M 358.991 507.123
C 358.753 511.411 359.409 515.842 360.95 519.86
C 362.203 523.124 364.089 526.088 366.448 528.663
C 368.583 530.995 370.985 532.728 373.74 534.255
C 391.597 544.146 414.149 530.448 415.218 510.555
C 415.429 506.636 414.818 502.48 413.388 498.822
C 411.948 495.141 409.94 491.737 407.13 488.935
C 397.565 479.397 381.501 478.079 370.518 485.971
C 366.638 488.76 363.75 492.461 361.631 496.716
C 360.027 499.937 359.191 503.533 358.991 507.123 Z
M 358.974 640.116
C 358.626 644.291 359.218 648.497 360.545 652.468
C 361.718 655.979 363.65 659.436 366.194 662.137
C 368.927 665.038 372.178 667.43 375.857 668.989
C 393.322 676.39 413.559 664.369 415.276 645.44
C 415.631 641.532 415.166 637.424 413.846 633.723
C 411.74 627.817 407.848 622.281 402.447 618.938
C 388.489 610.297 369.193 615.102 361.818 629.97
C 360.232 633.169 359.272 636.558 358.974 640.116 Z
M 399.831 426.448
C 399.472 429.914 399.753 433.518 399.752 437.003
C 399.75 444.037 399.828 451.086 399.75 458.113
C 404.475 458.671 409.605 460.983 413.666 463.386
C 425.179 470.199 433.467 480.605 437.247 493.483
C 438.307 497.096 439.073 500.883 439.243 504.653
C 439.32 506.385 438.661 509.487 439.442 510.975
C 451.123 519.276 463.512 526.634 475.374 534.679
C 498.619 550.445 521.842 566.446 545.556 581.497
C 556.866 588.676 567.773 596.499 578.924 603.922
C 582.243 606.132 585.596 608.371 588.844 610.687
C 590.149 611.618 591.517 612.981 592.98 613.614
C 598.964 605.251 606.1 598.98 615.422 594.589
C 618.445 593.165 621.697 592.6 624.741 591.364
C 624.949 584.925 624.749 578.451 624.756 572.008
C 624.76 568.137 625.156 564.019 624.772 560.178
C 620.816 559.763 616.425 557.577 612.908 555.803
C 600.933 549.763 591.521 539.123 587.326 526.315
C 585.315 520.177 585.026 514.082 584.618 507.718
C 581.488 505.004 577.56 502.96 574.14 500.616
C 564.913 494.292 555.522 488.208 546.259 481.936
C 522.69 465.976 499.067 450.013 475.201 434.497
C 464.66 427.643 454.222 420.598 443.792 413.573
C 440.618 411.435 437.4 409.365 434.221 407.234
C 433.164 406.526 431.831 405.037 430.608 404.777
C 429.105 407.529 426.828 409.964 424.684 412.227
C 418.185 419.089 409.191 424.615 399.831 426.448 Z
M 609.423 370.59
C 608.796 374.511 609.096 378.693 610.046 382.539
C 610.949 386.198 612.486 389.728 614.8 392.722
C 625.165 406.138 646.083 407.422 657.833 394.979
C 661.944 390.625 664.41 385.111 665.305 379.234
C 665.827 375.802 665.602 372.178 664.799 368.81
C 663.565 363.634 661.139 358.903 657.386 355.086
C 644.958 342.446 623.432 344.858 613.674 359.388
C 611.444 362.708 610.053 366.652 609.423 370.59 Z
M 609.443 504.09
C 608.746 507.987 608.981 512.411 610.005 516.22
C 611.249 520.845 613.315 524.99 616.604 528.512
C 628.993 541.781 651.39 539.628 661.297 524.558
C 663.327 521.471 664.594 517.908 665.242 514.286
C 668.751 494.662 650.271 476.302 630.543 481.437
C 623.621 483.239 618.276 487.156 613.993 492.817
C 611.529 496.074 610.156 500.1 609.443 504.09 Z
M 609.415 638.592
C 608.834 642.545 609.229 646.693 610.235 650.543
C 611.167 654.109 612.767 657.439 615.039 660.348
C 627.185 675.895 652.827 674.418 662.433 656.84
C 664.028 653.921 665.091 650.739 665.565 647.445
C 666.161 643.297 665.794 639.066 664.712 635.029
C 663.833 631.746 662.209 628.566 660.183 625.844
C 648.63 610.323 623.912 611.277 613.447 627.499
C 611.28 630.857 609.994 634.651 609.415 638.592 Z"
opacity="1" fill="#005F73" fill-rule="evenodd" />

</svg>